# xmcd CD database file
#
# Track frame offsets:
#	150
#	49932
#	73839
#	122847
#	144715
#	245544
#
# Disc length: 3793 seconds
#
# Revision: 0
# Processed by: cddbd v1.5.2PL0 Copyright (c) Steve Scherf et al.
# Submitted via: CDex 1.70beta2
#
DISCID=5d0ecf06
DTITLE=Abraham - La loi de l'attraction - CD1
DYEAR=2008
DGENRE=New Age
TTITLE0=Qui est Abraham ?
TTITLE1=02-La conscience christique
TTITLE2=03-Votre être intérieur
TTITLE3=04-Les 3 lois universelles
TTITLE4=05-La loi de l'attraction
TTITLE5=06-La loi de la création délibérée
EXTD=YEAR: 2008
EXTT0=
EXTT1=
EXTT2=
EXTT3=
EXTT4=
EXTT5=
PLAYORDER=
